<svg width="161" height="153" viewBox="0 0 161 153" fill="none" xmlns="http://www.w3.org/2000/svg">
<ellipse cx="80.5" cy="76.5" rx="80.5" ry="76.5" fill="#C4C4C4"/>
<path d="M55.5312 78.5859C55.3203 80.3906 54.6523 81.7852 53.5273 82.7695C52.4102 83.7461 50.9219 84.2344 49.0625 84.2344C47.0469 84.2344 45.4297 83.5117 44.2109 82.0664C43 80.6211 42.3945 78.6875 42.3945 76.2656V74.625C42.3945 73.0391 42.6758 71.6445 43.2383 70.4414C43.8086 69.2383 44.6133 68.3164 45.6523 67.6758C46.6914 67.0273 47.8945 66.7031 49.2617 66.7031C51.0742 66.7031 52.5273 67.2109 53.6211 68.2266C54.7148 69.2344 55.3516 70.6328 55.5312 72.4219H53.2695C53.0742 71.0625 52.6484 70.0781 51.9922 69.4688C51.3438 68.8594 50.4336 68.5547 49.2617 68.5547C47.8242 68.5547 46.6953 69.0859 45.875 70.1484C45.0625 71.2109 44.6562 72.7227 44.6562 74.6836V76.3359C44.6562 78.1875 45.043 79.6602 45.8164 80.7539C46.5898 81.8477 47.6719 82.3945 49.0625 82.3945C50.3125 82.3945 51.2695 82.1133 51.9336 81.5508C52.6055 80.9805 53.0508 79.9922 53.2695 78.5859H55.5312ZM63.5352 84.2344C61.8164 84.2344 60.418 83.6719 59.3398 82.5469C58.2617 81.4141 57.7227 79.9023 57.7227 78.0117V77.6133C57.7227 76.3555 57.9609 75.2344 58.4375 74.25C58.9219 73.2578 59.5938 72.4844 60.4531 71.9297C61.3203 71.3672 62.2578 71.0859 63.2656 71.0859C64.9141 71.0859 66.1953 71.6289 67.1094 72.7148C68.0234 73.8008 68.4805 75.3555 68.4805 77.3789V78.2812H59.8906C59.9219 79.5312 60.2852 80.543 60.9805 81.3164C61.6836 82.082 62.5742 82.4648 63.6523 82.4648C64.418 82.4648 65.0664 82.3086 65.5977 81.9961C66.1289 81.6836 66.5938 81.2695 66.9922 80.7539L68.3164 81.7852C67.2539 83.418 65.6602 84.2344 63.5352 84.2344ZM63.2656 72.8672C62.3906 72.8672 61.6562 73.1875 61.0625 73.8281C60.4688 74.4609 60.1016 75.3516 59.9609 76.5H66.3125V76.3359C66.25 75.2344 65.9531 74.3828 65.4219 73.7812C64.8906 73.1719 64.1719 72.8672 63.2656 72.8672ZM77.1289 73.2656C76.8008 73.2109 76.4453 73.1836 76.0625 73.1836C74.6406 73.1836 73.6758 73.7891 73.168 75V84H71V71.3203H73.1094L73.1445 72.7852C73.8555 71.6523 74.8633 71.0859 76.168 71.0859C76.5898 71.0859 76.9102 71.1406 77.1289 71.25V73.2656ZM82.6602 68.25V71.3203H85.0273V72.9961H82.6602V80.8594C82.6602 81.3672 82.7656 81.75 82.9766 82.0078C83.1875 82.2578 83.5469 82.3828 84.0547 82.3828C84.3047 82.3828 84.6484 82.3359 85.0859 82.2422V84C84.5156 84.1562 83.9609 84.2344 83.4219 84.2344C82.4531 84.2344 81.7227 83.9414 81.2305 83.3555C80.7383 82.7695 80.4922 81.9375 80.4922 80.8594V72.9961H78.1836V71.3203H80.4922V68.25H82.6602ZM95.3984 84C95.2734 83.75 95.1719 83.3047 95.0938 82.6641C94.0859 83.7109 92.8828 84.2344 91.4844 84.2344C90.2344 84.2344 89.207 83.8828 88.4023 83.1797C87.6055 82.4688 87.207 81.5703 87.207 80.4844C87.207 79.1641 87.707 78.1406 88.707 77.4141C89.7148 76.6797 91.1289 76.3125 92.9492 76.3125H95.0586V75.3164C95.0586 74.5586 94.832 73.957 94.3789 73.5117C93.9258 73.0586 93.2578 72.832 92.375 72.832C91.6016 72.832 90.9531 73.0273 90.4297 73.418C89.9062 73.8086 89.6445 74.2812 89.6445 74.8359H87.4648C87.4648 74.2031 87.6875 73.5938 88.1328 73.0078C88.5859 72.4141 89.1953 71.9453 89.9609 71.6016C90.7344 71.2578 91.582 71.0859 92.5039 71.0859C93.9648 71.0859 95.1094 71.4531 95.9375 72.1875C96.7656 72.9141 97.1953 73.918 97.2266 75.1992V81.0352C97.2266 82.1992 97.375 83.125 97.6719 83.8125V84H95.3984ZM91.8008 82.3477C92.4805 82.3477 93.125 82.1719 93.7344 81.8203C94.3438 81.4688 94.7852 81.0117 95.0586 80.4492V77.8477H93.3594C90.7031 77.8477 89.375 78.625 89.375 80.1797C89.375 80.8594 89.6016 81.3906 90.0547 81.7734C90.5078 82.1562 91.0898 82.3477 91.8008 82.3477ZM102.98 84H100.812V71.3203H102.98V84ZM100.637 67.957C100.637 67.6055 100.742 67.3086 100.953 67.0664C101.172 66.8242 101.492 66.7031 101.914 66.7031C102.336 66.7031 102.656 66.8242 102.875 67.0664C103.094 67.3086 103.203 67.6055 103.203 67.957C103.203 68.3086 103.094 68.6016 102.875 68.8359C102.656 69.0703 102.336 69.1875 101.914 69.1875C101.492 69.1875 101.172 69.0703 100.953 68.8359C100.742 68.6016 100.637 68.3086 100.637 67.957ZM108.512 71.3203L108.582 72.9141C109.551 71.6953 110.816 71.0859 112.379 71.0859C115.059 71.0859 116.41 72.5977 116.434 75.6211V84H114.266V75.6094C114.258 74.6953 114.047 74.0195 113.633 73.582C113.227 73.1445 112.59 72.9258 111.723 72.9258C111.02 72.9258 110.402 73.1133 109.871 73.4883C109.34 73.8633 108.926 74.3555 108.629 74.9648V84H106.461V71.3203H108.512Z" fill="black"/>
</svg>
