<svg width="145" height="137" viewBox="0 0 145 137" fill="none" xmlns="http://www.w3.org/2000/svg">
<ellipse cx="72.5" cy="68.5" rx="72.5" ry="68.5" fill="#C4C4C4"/>
<path d="M27.0078 68.3945C25.0781 67.8398 23.6719 67.1602 22.7891 66.3555C21.9141 65.543 21.4766 64.543 21.4766 63.3555C21.4766 62.0117 22.0117 60.9023 23.082 60.0273C24.1602 59.1445 25.5586 58.7031 27.2773 58.7031C28.4492 58.7031 29.4922 58.9297 30.4062 59.3828C31.3281 59.8359 32.0391 60.4609 32.5391 61.2578C33.0469 62.0547 33.3008 62.9258 33.3008 63.8711H31.0391C31.0391 62.8398 30.7109 62.0312 30.0547 61.4453C29.3984 60.8516 28.4727 60.5547 27.2773 60.5547C26.168 60.5547 25.3008 60.8008 24.6758 61.293C24.0586 61.7773 23.75 62.4531 23.75 63.3203C23.75 64.0156 24.043 64.6055 24.6289 65.0898C25.2227 65.5664 26.2266 66.0039 27.6406 66.4023C29.0625 66.8008 30.1719 67.2422 30.9688 67.7266C31.7734 68.2031 32.3672 68.7617 32.75 69.4023C33.1406 70.043 33.3359 70.7969 33.3359 71.6641C33.3359 73.0469 32.7969 74.1562 31.7188 74.9922C30.6406 75.8203 29.1992 76.2344 27.3945 76.2344C26.2227 76.2344 25.1289 76.0117 24.1133 75.5664C23.0977 75.1133 22.3125 74.4961 21.7578 73.7148C21.2109 72.9336 20.9375 72.0469 20.9375 71.0547H23.1992C23.1992 72.0859 23.5781 72.9023 24.3359 73.5039C25.1016 74.0977 26.1211 74.3945 27.3945 74.3945C28.582 74.3945 29.4922 74.1523 30.125 73.668C30.7578 73.1836 31.0742 72.5234 31.0742 71.6875C31.0742 70.8516 30.7812 70.207 30.1953 69.7539C29.6094 69.293 28.5469 68.8398 27.0078 68.3945ZM35.3164 69.543C35.3164 68.3008 35.5586 67.1836 36.043 66.1914C36.5352 65.1992 37.2148 64.4336 38.082 63.8945C38.957 63.3555 39.9531 63.0859 41.0703 63.0859C42.7969 63.0859 44.1914 63.6836 45.2539 64.8789C46.3242 66.0742 46.8594 67.6641 46.8594 69.6484V69.8008C46.8594 71.0352 46.6211 72.1445 46.1445 73.1289C45.6758 74.1055 45 74.8672 44.1172 75.4141C43.2422 75.9609 42.2344 76.2344 41.0938 76.2344C39.375 76.2344 37.9805 75.6367 36.9102 74.4414C35.8477 73.2461 35.3164 71.6641 35.3164 69.6953V69.543ZM37.4961 69.8008C37.4961 71.207 37.8203 72.3359 38.4688 73.1875C39.125 74.0391 40 74.4648 41.0938 74.4648C42.1953 74.4648 43.0703 74.0352 43.7188 73.1758C44.3672 72.3086 44.6914 71.0977 44.6914 69.543C44.6914 68.1523 44.3594 67.0273 43.6953 66.168C43.0391 65.3008 42.1641 64.8672 41.0703 64.8672C40 64.8672 39.1367 65.293 38.4805 66.1445C37.8242 66.9961 37.4961 68.2148 37.4961 69.8008ZM51.6172 63.3203L51.6758 64.7266C52.6055 63.6328 53.8594 63.0859 55.4375 63.0859C57.2109 63.0859 58.418 63.7656 59.0586 65.125C59.4805 64.5156 60.0273 64.0234 60.6992 63.6484C61.3789 63.2734 62.1797 63.0859 63.1016 63.0859C65.8828 63.0859 67.2969 64.5586 67.3438 67.5039V76H65.1758V67.6328C65.1758 66.7266 64.9688 66.0508 64.5547 65.6055C64.1406 65.1523 63.4453 64.9258 62.4688 64.9258C61.6641 64.9258 60.9961 65.168 60.4648 65.6523C59.9336 66.1289 59.625 66.7734 59.5391 67.5859V76H57.3594V67.6914C57.3594 65.8477 56.457 64.9258 54.6523 64.9258C53.2305 64.9258 52.2578 65.5312 51.7344 66.7422V76H49.5664V63.3203H51.6172ZM75.8867 76.2344C74.168 76.2344 72.7695 75.6719 71.6914 74.5469C70.6133 73.4141 70.0742 71.9023 70.0742 70.0117V69.6133C70.0742 68.3555 70.3125 67.2344 70.7891 66.25C71.2734 65.2578 71.9453 64.4844 72.8047 63.9297C73.6719 63.3672 74.6094 63.0859 75.6172 63.0859C77.2656 63.0859 78.5469 63.6289 79.4609 64.7148C80.375 65.8008 80.832 67.3555 80.832 69.3789V70.2812H72.2422C72.2734 71.5312 72.6367 72.543 73.332 73.3164C74.0352 74.082 74.9258 74.4648 76.0039 74.4648C76.7695 74.4648 77.418 74.3086 77.9492 73.9961C78.4805 73.6836 78.9453 73.2695 79.3438 72.7539L80.668 73.7852C79.6055 75.418 78.0117 76.2344 75.8867 76.2344ZM75.6172 64.8672C74.7422 64.8672 74.0078 65.1875 73.4141 65.8281C72.8203 66.4609 72.4531 67.3516 72.3125 68.5H78.6641V68.3359C78.6016 67.2344 78.3047 66.3828 77.7734 65.7812C77.2422 65.1719 76.5234 64.8672 75.6172 64.8672ZM94.5781 73.0117L97.0156 63.3203H99.1836L95.4922 76H93.7344L90.6523 66.3906L87.6523 76H85.8945L82.2148 63.3203H84.3711L86.8672 72.8125L89.8203 63.3203H91.5664L94.5781 73.0117ZM103.566 64.8555C104.527 63.6758 105.777 63.0859 107.316 63.0859C109.996 63.0859 111.348 64.5977 111.371 67.6211V76H109.203V67.6094C109.195 66.6953 108.984 66.0195 108.57 65.582C108.164 65.1445 107.527 64.9258 106.66 64.9258C105.957 64.9258 105.34 65.1133 104.809 65.4883C104.277 65.8633 103.863 66.3555 103.566 66.9648V76H101.398V58H103.566V64.8555ZM122.445 76C122.32 75.75 122.219 75.3047 122.141 74.6641C121.133 75.7109 119.93 76.2344 118.531 76.2344C117.281 76.2344 116.254 75.8828 115.449 75.1797C114.652 74.4688 114.254 73.5703 114.254 72.4844C114.254 71.1641 114.754 70.1406 115.754 69.4141C116.762 68.6797 118.176 68.3125 119.996 68.3125H122.105V67.3164C122.105 66.5586 121.879 65.957 121.426 65.5117C120.973 65.0586 120.305 64.832 119.422 64.832C118.648 64.832 118 65.0273 117.477 65.418C116.953 65.8086 116.691 66.2812 116.691 66.8359H114.512C114.512 66.2031 114.734 65.5938 115.18 65.0078C115.633 64.4141 116.242 63.9453 117.008 63.6016C117.781 63.2578 118.629 63.0859 119.551 63.0859C121.012 63.0859 122.156 63.4531 122.984 64.1875C123.812 64.9141 124.242 65.918 124.273 67.1992V73.0352C124.273 74.1992 124.422 75.125 124.719 75.8125V76H122.445ZM118.848 74.3477C119.527 74.3477 120.172 74.1719 120.781 73.8203C121.391 73.4688 121.832 73.0117 122.105 72.4492V69.8477H120.406C117.75 69.8477 116.422 70.625 116.422 72.1797C116.422 72.8594 116.648 73.3906 117.102 73.7734C117.555 74.1562 118.137 74.3477 118.848 74.3477ZM130.613 60.25V63.3203H132.98V64.9961H130.613V72.8594C130.613 73.3672 130.719 73.75 130.93 74.0078C131.141 74.2578 131.5 74.3828 132.008 74.3828C132.258 74.3828 132.602 74.3359 133.039 74.2422V76C132.469 76.1562 131.914 76.2344 131.375 76.2344C130.406 76.2344 129.676 75.9414 129.184 75.3555C128.691 74.7695 128.445 73.9375 128.445 72.8594V64.9961H126.137V63.3203H128.445V60.25H130.613Z" fill="black"/>
</svg>
