<svg width="72" height="73" viewBox="0 0 72 73" fill="none" xmlns="http://www.w3.org/2000/svg">
<ellipse cx="36" cy="36.5" rx="36" ry="36.5" fill="#C4C4C4"/>
<path d="M14.1621 31.0469V37.8145C14.1576 38.7533 13.8613 39.5212 13.2734 40.1182C12.6901 40.7152 11.8971 41.0501 10.8945 41.123L10.5459 41.1367C9.45671 41.1367 8.58854 40.8428 7.94141 40.2549C7.29427 39.667 6.96615 38.8581 6.95703 37.8281V31.0469H8.25586V37.7871C8.25586 38.5072 8.4541 39.0677 8.85059 39.4688C9.24707 39.8652 9.81217 40.0635 10.5459 40.0635C11.2887 40.0635 11.8561 39.8652 12.248 39.4688C12.6445 39.0723 12.8428 38.514 12.8428 37.7939V31.0469H14.1621ZM17.2314 33.6035L17.2725 34.5332C17.8376 33.8223 18.5758 33.4668 19.4873 33.4668C21.0505 33.4668 21.8389 34.3486 21.8525 36.1123V41H20.5879V36.1055C20.5833 35.5723 20.4603 35.1781 20.2188 34.9229C19.9818 34.6676 19.6104 34.54 19.1045 34.54C18.6943 34.54 18.3343 34.6494 18.0244 34.8682C17.7145 35.0869 17.473 35.374 17.2998 35.7295V41H16.0352V33.6035H17.2314ZM26.7266 40.1045C27.1777 40.1045 27.5719 39.9678 27.9092 39.6943C28.2464 39.4209 28.4333 39.0791 28.4697 38.6689H29.666C29.6432 39.0928 29.4974 39.4961 29.2285 39.8789C28.9596 40.2617 28.5996 40.5671 28.1484 40.7949C27.7018 41.0228 27.2279 41.1367 26.7266 41.1367C25.7194 41.1367 24.9173 40.8018 24.3203 40.1318C23.7279 39.4574 23.4316 38.5368 23.4316 37.3701V37.1582C23.4316 36.4382 23.5638 35.7979 23.8281 35.2373C24.0924 34.6768 24.4707 34.2415 24.9629 33.9316C25.4596 33.6217 26.0452 33.4668 26.7197 33.4668C27.5492 33.4668 28.2373 33.7152 28.7842 34.2119C29.3356 34.7087 29.6296 35.3535 29.666 36.1465H28.4697C28.4333 35.668 28.251 35.276 27.9229 34.9707C27.5993 34.6608 27.1982 34.5059 26.7197 34.5059C26.0771 34.5059 25.5781 34.7383 25.2227 35.2031C24.8717 35.6634 24.6963 36.3311 24.6963 37.2061V37.4453C24.6963 38.2975 24.8717 38.9538 25.2227 39.4141C25.5736 39.8743 26.0749 40.1045 26.7266 40.1045ZM34.1572 41.1367C33.1546 41.1367 32.3389 40.8086 31.71 40.1523C31.0811 39.4915 30.7666 38.6097 30.7666 37.5068V37.2744C30.7666 36.5407 30.9056 35.8867 31.1836 35.3125C31.4661 34.7337 31.8581 34.2826 32.3594 33.959C32.8652 33.6309 33.4121 33.4668 34 33.4668C34.9616 33.4668 35.709 33.7835 36.2422 34.417C36.7754 35.0505 37.042 35.9574 37.042 37.1377V37.6641H32.0312C32.0495 38.3932 32.2614 38.9834 32.667 39.4346C33.0771 39.8812 33.5967 40.1045 34.2256 40.1045C34.6722 40.1045 35.0505 40.0133 35.3604 39.8311C35.6702 39.6488 35.9414 39.4072 36.1738 39.1064L36.9463 39.708C36.3265 40.6605 35.3968 41.1367 34.1572 41.1367ZM34 34.5059C33.4896 34.5059 33.0612 34.6927 32.7148 35.0664C32.3685 35.4355 32.1543 35.9551 32.0723 36.625H35.7773V36.5293C35.7409 35.8867 35.5677 35.39 35.2578 35.0391C34.9479 34.6836 34.5286 34.5059 34 34.5059ZM42.0869 34.7383C41.8955 34.7064 41.6882 34.6904 41.4648 34.6904C40.6354 34.6904 40.0726 35.0436 39.7764 35.75V41H38.5117V33.6035H39.7422L39.7627 34.458C40.1774 33.7972 40.7653 33.4668 41.5264 33.4668C41.7725 33.4668 41.9593 33.4987 42.0869 33.5625V34.7383ZM45.3135 31.8125V33.6035H46.6943V34.5811H45.3135V39.168C45.3135 39.4642 45.375 39.6875 45.498 39.8379C45.6211 39.9837 45.8307 40.0566 46.127 40.0566C46.2728 40.0566 46.4733 40.0293 46.7285 39.9746V41C46.3958 41.0911 46.0723 41.1367 45.7578 41.1367C45.1927 41.1367 44.7666 40.9658 44.4795 40.624C44.1924 40.2822 44.0488 39.7969 44.0488 39.168V34.5811H42.7021V33.6035H44.0488V31.8125H45.3135ZM52.7441 41C52.6712 40.8542 52.612 40.5944 52.5664 40.2207C51.9785 40.8314 51.2767 41.1367 50.4609 41.1367C49.7318 41.1367 49.1325 40.9316 48.6631 40.5215C48.1982 40.1068 47.9658 39.5827 47.9658 38.9492C47.9658 38.179 48.2575 37.582 48.8408 37.1582C49.4287 36.7298 50.2536 36.5156 51.3154 36.5156H52.5459V35.9346C52.5459 35.4925 52.4137 35.1416 52.1494 34.8818C51.8851 34.6175 51.4954 34.4854 50.9805 34.4854C50.5293 34.4854 50.151 34.5993 49.8457 34.8271C49.5404 35.055 49.3877 35.3307 49.3877 35.6543H48.1162C48.1162 35.2852 48.2461 34.9297 48.5059 34.5879C48.7702 34.2415 49.1257 33.9681 49.5723 33.7676C50.0234 33.5671 50.5179 33.4668 51.0557 33.4668C51.9079 33.4668 52.5755 33.681 53.0586 34.1094C53.5417 34.5332 53.7923 35.1188 53.8105 35.8662V39.2705C53.8105 39.9495 53.8971 40.4896 54.0703 40.8906V41H52.7441ZM50.6455 40.0361C51.042 40.0361 51.418 39.9336 51.7734 39.7285C52.1289 39.5234 52.3864 39.2568 52.5459 38.9287V37.4111H51.5547C50.0052 37.4111 49.2305 37.8646 49.2305 38.7715C49.2305 39.168 49.3626 39.4779 49.627 39.7012C49.8913 39.9245 50.2308 40.0361 50.6455 40.0361ZM57.167 41H55.9023V33.6035H57.167V41ZM55.7998 31.6416C55.7998 31.4365 55.8613 31.2633 55.9844 31.1221C56.112 30.9808 56.2988 30.9102 56.5449 30.9102C56.791 30.9102 56.9779 30.9808 57.1055 31.1221C57.2331 31.2633 57.2969 31.4365 57.2969 31.6416C57.2969 31.8467 57.2331 32.0176 57.1055 32.1543C56.9779 32.291 56.791 32.3594 56.5449 32.3594C56.2988 32.3594 56.112 32.291 55.9844 32.1543C55.8613 32.0176 55.7998 31.8467 55.7998 31.6416ZM60.3936 33.6035L60.4346 34.5332C60.9997 33.8223 61.738 33.4668 62.6494 33.4668C64.2126 33.4668 65.001 34.3486 65.0146 36.1123V41H63.75V36.1055C63.7454 35.5723 63.6224 35.1781 63.3809 34.9229C63.1439 34.6676 62.7725 34.54 62.2666 34.54C61.8564 34.54 61.4964 34.6494 61.1865 34.8682C60.8766 35.0869 60.6351 35.374 60.4619 35.7295V41H59.1973V33.6035H60.3936Z" fill="black"/>
</svg>
